HIERARCHY
ROOT hip
{
	OFFSET 0.000000 0.000000 0.000000
	CHANNELS 6 Xposition Yposition Zposition Xrotation Zrotation Yrotation 
	JOINT abdomen
	{
		OFFSET 0.000000 3.422050 0.000000
		CHANNELS 3 Xrotation Zrotation Yrotation 
		JOINT chest
		{
			OFFSET 0.000000 8.486693 -0.684411
			CHANNELS 3 Xrotation Zrotation Yrotation 
			JOINT neck
			{
				OFFSET 0.000000 10.266162 -0.273764
				CHANNELS 3 Xrotation Zrotation Yrotation 
				JOINT head
				{
					OFFSET 0.000000 3.148285 0.000000
					CHANNELS 3 Xrotation Zrotation Yrotation 
					End Site
					{
						OFFSET 0.000000 3.148289 0.000000
					}
				}
			}
			JOINT lCollar
			{
				OFFSET 3.422053 6.707223 -0.821293
				CHANNELS 3 Yrotation Zrotation Xrotation 
				JOINT lShldr
				{
					OFFSET 3.285171 0.000000 0.000000
					CHANNELS 3 Zrotation Yrotation Xrotation 
					JOINT lForeArm
					{
						OFFSET 10.129278 0.000000 0.000000
						CHANNELS 3 Yrotation Zrotation Xrotation 
						JOINT lHand
						{
							OFFSET 8.486692 0.000000 0.000000
							CHANNELS 3 Zrotation Yrotation Xrotation 
							End Site
							{
								OFFSET 4.106464 0.000000 0.000000
							}
						}
					}
				}
			}
			JOINT rCollar
			{
				OFFSET -3.558935 6.707223 -0.821293
				CHANNELS 3 Yrotation Zrotation Xrotation 
				JOINT rShldr
				{
					OFFSET -3.148289 0.000000 0.000000
					CHANNELS 3 Zrotation Yrotation Xrotation 
					JOINT rForeArm
					{
						OFFSET -10.266159 0.000000 0.000000
						CHANNELS 3 Yrotation Zrotation Xrotation 
						JOINT rHand
						{
							OFFSET -8.349810 0.000000 0.000000
							CHANNELS 3 Zrotation Yrotation Xrotation 
							End Site
							{
								OFFSET -4.106464 0.000000 0.000000
							}
						}
					}
				}
			}
		}
	}
	JOINT lThigh
	{
		OFFSET 5.338403 -1.642589 1.368821
		CHANNELS 3 Xrotation Zrotation Yrotation 
		JOINT lShin
		{
			OFFSET -2.053232 -20.121670 0.000000
			CHANNELS 3 Xrotation Zrotation Yrotation 
			JOINT lFoot
			{
				OFFSET 0.000000 -19.300380 -1.231939
				CHANNELS 3 Xrotation Yrotation Zrotation 
				End Site
				{
					OFFSET 0.000000 -2.463878 4.653993
				}
			}
		}
	}
	JOINT rThigh
	{
		OFFSET -5.338403 -1.642589 1.368821
		CHANNELS 3 Xrotation Zrotation Yrotation 
		JOINT rShin
		{
			OFFSET 2.053232 -20.121670 0.000000
			CHANNELS 3 Xrotation Zrotation Yrotation 
			JOINT rFoot
			{
				OFFSET 0.000000 -19.300380 -1.231939
				CHANNELS 3 Xrotation Yrotation Zrotation 
				End Site
				{
					OFFSET 0.000000 -2.463878 4.653993
				}
			}
		}
	}
}
MOTION
Frames: 16
Frame Time: 0.058824
0.000000 43.528500 0.000000 0.000000 0.000000 0.000000 0.000000 0.000000 0.000000 0.000000 0.000000 0.000000 0.000000 0.000000 0.000000 0.000000 0.000000 0.000000 0.000000 0.000000 0.000000 0.000000 0.000000 0.000000 0.000000 0.000000 0.000000 0.000000 0.000000 0.000000 0.000000 0.000000 0.000000 0.000000 0.000000 0.000000 0.000000 0.000000 0.000000 0.000000 0.000000 0.000000 0.000000 0.000000 0.000000 0.000000 0.000000 0.000000 0.000000 0.000000 0.000000 0.000000 0.000000 0.000000 0.000000 0.000000 0.000000 0.000000 0.000000 0.000000 
0.000000 16.996468 -20.001888 -89.996941 0.254758 -179.732864 -0.337420 -0.085889 -0.071437 -0.395176 -0.339518 -0.591594 -20.001711 0.000000 0.000000 -18.001886 0.000000 0.000000 -0.541273 -6.089017 -0.135598 4.830959 -53.834896 -4.276876 -32.452065 17.444202 -5.151048 59.998985 0.000000 0.000000 0.537765 6.085523 -0.135398 -4.835751 53.830849 -4.279071 32.448425 -17.447435 -5.150644 -60.003029 0.000000 0.000000 -132.024918 25.610189 -0.094397 127.783989 5.267752 -0.472272 55.680870 1.726815 5.009548 -132.027908 -25.614918 0.096891 127.784027 -5.266160 0.467588 55.680714 -1.731540 -5.011014 
0.000000 16.955803 -20.128046 -88.464073 0.231608 -179.749557 0.890153 -0.085724 -0.071331 -1.393347 -0.339736 -0.591637 -18.165985 0.000000 0.000000 -16.166243 0.000000 0.000000 -3.374120 -6.412711 0.266262 4.603362 -51.648548 -4.180302 -30.359812 16.476406 -5.789207 60.376842 -1.131890 -0.856464 3.326672 6.400958 0.275695 -4.628499 51.730793 -4.195137 30.351072 -16.488361 -5.790325 -60.368500 1.138951 -0.829298 -130.173660 26.073854 0.000684 127.783989 5.267752 -0.472272 55.184528 1.772543 5.395378 -130.176605 -26.080034 -0.000448 127.784027 -5.266160 0.467588 55.185879 -1.776628 -5.397815 
0.000000 16.915136 -20.254204 -86.928177 0.208869 -179.766891 2.119283 -0.085562 -0.071220 -2.392353 -0.339954 -0.591675 -16.325012 0.000000 0.000000 -14.325349 0.000000 0.000000 -6.227423 -6.758350 0.654574 4.390915 -49.453041 -4.101176 -28.280388 15.482862 -6.389604 60.772537 -2.260018 -1.722456 6.135029 6.738369 0.673888 -4.434360 49.622635 -4.126369 28.266397 -15.503463 -6.392507 -60.751350 2.274484 -1.667838 -128.308609 26.535873 0.113196 127.783989 5.267752 -0.472272 54.687706 1.814940 5.781723 -128.311478 -26.543436 -0.115286 127.784027 -5.266160 0.467588 54.690586 -1.818387 -5.785126 
0.000000 16.874472 -20.380363 -85.389816 0.186567 -179.784851 3.349692 -0.085401 -0.071107 -3.392045 -0.340173 -0.591710 -14.479730 0.000000 0.000000 -12.480141 0.000000 0.000000 -9.097789 -7.125033 1.027556 4.191246 -47.249950 -4.037186 -26.214470 14.465590 -6.951441 61.186256 -3.383673 -2.598376 8.959579 7.096912 1.057434 -4.251349 47.507828 -4.070832 26.195093 -14.494746 -6.956367 -61.151756 3.405913 -2.516026 -126.430420 26.995464 0.243317 127.783989 5.267752 -0.472272 54.190479 1.853997 6.168534 -126.433128 -27.004345 -0.247804 127.784027 -5.266160 0.467588 54.194893 -1.856808 -6.172896 
0.000000 16.833805 -20.506521 -83.849510 0.164728 -179.803452 4.581096 -0.085243 -0.070989 -4.392270 -0.340393 -0.591741 -12.631077 0.000000 0.000000 -10.631567 0.000000 0.000000 -11.981739 -7.511665 1.383498 4.002416 -45.040977 -3.986457 -24.162567 13.426676 -7.474071 61.618237 -4.502136 -3.484625 11.796978 7.475560 1.424650 -4.077821 45.387814 -4.026936 24.137716 -13.464287 -7.481246 -61.569962 4.532540 -3.374264 -124.539719 27.451847 0.391174 127.783989 5.267752 -0.472272 53.692875 1.889702 6.555755 -124.542229 -27.461971 -0.398122 127.784019 -5.266160 0.467588 53.698811 -1.891879 -6.561069 
0.000000 16.793140 -20.632679 -82.307823 0.143378 -179.822632 5.813212 -0.085088 -0.070869 -5.392877 -0.340613 -0.591768 -10.780006 0.000000 0.000000 -8.780580 0.000000 0.000000 -14.875720 -7.916974 1.720792 3.822811 -42.827751 -3.947441 -22.125118 12.368289 -7.957000 62.068676 -5.614678 -4.381595 14.643826 7.873110 1.773946 -3.912403 43.264046 -3.993364 22.094728 -12.414247 -7.966626 -62.006180 5.653665 -4.242953 -122.637253 27.904242 0.556837 127.783989 5.267752 -0.472272 53.194969 1.922050 6.943340 -122.639503 -27.915543 -0.566312 127.784027 -5.266160 0.467588 53.202446 -1.923594 -6.949599 
0.000000 16.752474 -20.758837 -80.765312 0.122541 -179.842377 7.045754 -0.084935 -0.070745 -6.393712 -0.340834 -0.591791 -8.927486 0.000000 0.000000 -6.928140 0.000000 0.000000 -17.776152 -8.339522 2.037948 3.651084 -40.611961 -3.918857 -20.102427 11.292643 -8.399865 62.537773 -6.720566 -5.289675 17.496695 8.288201 2.103841 -3.753948 41.138027 -3.969022 20.066462 -11.346826 -8.412133 -62.460606 6.768575 -5.122489 -120.723732 28.351866 0.740328 127.783989 5.267752 -0.472272 52.696796 1.951031 7.331230 -120.725700 -28.364279 -0.752396 127.784027 -5.266160 0.467588 52.705811 -1.951945 -7.338429 
0.000000 16.711809 -20.884996 -79.222542 0.102241 -179.862701 8.278442 -0.084785 -0.070617 -7.394624 -0.341055 -0.591811 -7.074478 0.000000 0.000000 -5.075213 0.000000 0.000000 -20.679440 -8.777721 2.333615 3.486096 -38.395267 -3.899635 -18.094709 10.202000 -8.802444 63.025734 -7.819057 -6.209247 20.352135 8.719327 2.412988 -3.601473 39.011219 -3.952988 18.053164 -10.264280 -8.817532 -62.933460 7.876554 -6.013264 -118.799965 28.793943 0.941608 127.783989 5.267752 -0.472272 52.198421 1.976641 7.719377 -118.801582 -28.807383 -0.956323 127.784027 -5.266160 0.467588 52.208973 -1.976927 -7.727509 
0.000000 16.671143 -21.011154 -77.680084 0.082498 -179.883545 9.510985 -0.084638 -0.070487 -8.395459 -0.341277 -0.591826 -5.221957 0.000000 0.000000 -3.222774 0.000000 0.000000 -23.581987 -9.229856 2.606602 3.326879 -36.179390 -3.888880 -16.102100 9.098644 -9.164645 63.532753 -8.909405 -7.140683 23.206734 9.164853 2.700186 -3.454144 36.885132 -3.944489 16.054979 -9.168882 -9.182705 -63.424988 8.976881 -6.915665 -116.866753 29.229706 1.160574 127.783989 5.267752 -0.472272 51.699886 1.998874 8.107725 -116.867950 -29.244080 -1.177992 127.784027 -5.266160 0.467588 51.711983 -1.998535 -8.116782 
0.000000 16.630478 -21.137312 -76.138458 0.063334 -179.904922 10.743102 -0.084493 -0.070353 -9.396067 -0.341498 -0.591838 -3.370888 0.000000 0.000000 -1.371784 0.000000 0.000000 -26.480268 -9.694106 2.855891 3.172600 -33.965977 -3.885835 -14.124640 7.984876 -9.486489 64.059044 -9.990863 -8.084352 26.057102 9.623033 2.964395 -3.311239 34.761230 -3.942865 14.071997 -8.062928 -9.507673 -63.935352 10.068826 -7.830068 -114.924980 29.658392 1.397064 127.783989 5.267752 -0.472272 51.201252 2.017727 8.496223 -114.925735 -29.673637 -1.417239 127.784027 -5.266160 0.467588 51.214909 -2.016765 -8.506204 
0.000000 16.589811 -21.263470 -74.598259 0.044769 -179.926773 11.974505 -0.084352 -0.070217 -10.396290 -0.341720 -0.591846 -1.522234 0.000000 0.000000 0.476790 0.000000 0.000000 -29.370787 -10.168562 3.080646 3.022541 -31.756725 -3.889859 -12.162319 6.862992 -9.768111 64.604790 -11.062674 -9.040605 28.899927 10.092046 3.204753 -3.172133 32.640995 -3.947557 12.104216 -6.948712 -9.792555 -64.464813 11.151667 -8.756850 -112.975525 30.079266 1.650859 127.783989 5.267752 -0.472272 50.702572 2.033199 8.884819 -112.975800 -30.095297 -1.673842 127.784027 -5.266160 0.467588 50.717773 -2.031616 -8.895712 
0.000000 16.549147 -21.389629 -73.060020 0.026820 -179.949081 13.204913 -0.084213 -0.070077 -11.395982 -0.341942 -0.591850 0.323051 0.000000 0.000000 2.321996 0.000000 0.000000 -32.250175 -10.651272 3.280226 2.876075 -29.553268 -3.900406 -10.215056 5.735279 -10.009754 65.170204 -12.124096 -10.009789 31.731966 10.570005 3.420575 -3.036280 30.525885 -3.958086 10.151581 -5.828509 -10.037582 -65.013542 12.224664 -9.696366 -111.019348 30.491617 1.921671 127.783989 5.267752 -0.472272 50.203884 2.045286 9.273457 -111.019051 -30.508339 -1.947505 127.784027 -5.266160 0.467588 50.220657 -2.043087 -9.285257 
0.000000 16.508480 -21.515787 -71.524300 0.009505 -179.971832 14.434044 -0.084078 -0.069935 -12.394992 -0.342164 -0.591850 2.164023 0.000000 0.000000 4.162888 0.000000 0.000000 -35.115131 -11.140241 3.454187 2.732651 -27.357222 -3.917009 -8.282731 4.603996 -10.211752 65.755402 -13.174362 -10.992222 34.550087 11.054989 3.611367 -2.903199 28.417337 -3.974040 8.213991 -4.704579 -10.243086 -65.581749 13.287090 -10.648968 -109.057419 30.894753 2.209153 127.783989 5.267751 -0.472272 49.705269 2.053992 9.662084 -109.056511 -30.912077 -2.237884 127.784019 -5.266160 0.467588 49.723598 -2.051178 -9.674788 
0.000000 16.467815 -21.641945 -70.001907 -0.007163 -179.994995 15.661617 -0.083946 -0.069790 -13.393161 -0.342385 -0.591846 3.999748 0.000000 0.000000 5.998535 0.000000 0.000000 -37.962494 -11.633472 3.602276 2.591786 -25.170176 -3.939270 -6.365179 3.471368 -10.374536 66.360580 -14.212733 -11.988225 37.351284 11.545066 3.776817 -2.772465 26.316751 -3.995067 6.291306 -3.579140 -10.409488 -66.169632 14.338219 -11.614995 -107.090759 31.288012 2.512901 127.783989 5.267752 -0.472272 49.206753 2.059315 10.050648 -107.089203 -31.305862 -2.544564 127.784027 -5.266160 0.467588 49.226658 -2.055891 -10.064251 
0.000000 16.503059 -21.532608 -71.319748 0.007245 -179.974899 14.597816 -0.084060 -0.069916 -12.528131 -0.342193 -0.591850 2.409110 0.000000 0.000000 4.407964 0.000000 0.000000 -35.495861 -11.205801 3.475428 2.713731 -27.065054 -3.919657 -8.026208 4.453009 -10.235712 65.834930 -13.313515 -11.124230 34.924622 11.120080 3.634895 -2.885642 28.136772 -3.976558 7.956775 -4.554559 -10.267522 -65.659004 13.427914 -10.776992 -108.795456 30.947775 2.248726 127.783989 5.267752 -0.472272 49.638794 2.054897 9.713898 -108.794456 -30.965172 -2.277843 127.784027 -5.266160 0.467588 49.657333 -2.052002 -9.726723 
